<svg viewBox="0,0,954,500" xmlns="http://www.w3.org/2000/svg" xmlns:xlink="http://www.w3.org/1999/xlink"><g fill="steelblue"><rect x="44" y="180.66367501180912" height="289.3363249881909" width="32"/><rect x="79" y="417.1421823334908" height="52.85781766650922" width="32"/><rect x="114" y="371.44071799716585" height="98.55928200283415" width="32"/><rect x="149" y="319.32687765706186" height="150.67312234293814" width="32"/><rect x="184" y="20" height="450" width="32"/><rect x="219" y="388.94189891355694" height="81.05810108644306" width="32"/><rect x="254" y="398.61360415682566" height="71.38639584317434" width="32"/><rect x="289" y="254.10486537553143" height="215.89513462446857" width="32"/><rect x="324" y="223.21209258384505" height="246.78790741615495" width="32"/><rect x="359" y="464.57959376476146" height="5.420406235238545" width="32"/><rect x="394" y="442.64997638167216" height="27.35002361832784" width="32"/><rect x="429" y="327.4043457723193" height="142.5956542276807" width="32"/><rect x="464" y="384.76145488899385" height="85.23854511100615" width="32"/><rect x="499" y="230.89985829003308" height="239.10014170996692" width="32"/><rect x="534" y="204.0458195559754" height="265.9541804440246" width="32"/><rect x="569" y="401.660368445914" height="68.339631554086" width="32"/><rect x="604" y="466.63438828530934" height="3.365611714690658" width="32"/><rect x="639" y="257.89560699102503" height="212.10439300897497" width="32"/><rect x="674" y="245.850259801606" height="224.149740198394" width="32"/><rect x="709" y="149.16863486065182" height="320.8313651393482" width="32"/><rect x="744" y="372.2909777987718" height="97.70902220122821" width="32"/><rect x="779" y="435.3519130845536" height="34.64808691544641" width="32"/><rect x="814" y="386.39111950873877" height="83.60888049126123" width="32"/><rect x="849" y="464.68587623996217" height="5.31412376003783" width="32"/><rect x="884" y="400.06613131790266" height="69.93386868209734" width="32"/><rect x="919" y="467.3783656117147" height="2.6216343882853153" width="32"/></g><g transform="translate(0,470)" fill="none" font-size="10" font-family="sans-serif" text-anchor="middle"><path class="domain" stroke="currentColor" d="M40.5,0.5H954.5"/><g class="tick" opacity="1" transform="translate(60.5,0)"><line stroke="currentColor" y2="6"/><text fill="currentColor" y="9" dy="0.71em">A</text></g><g class="tick" opacity="1" transform="translate(95.5,0)"><line stroke="currentColor" y2="6"/><text fill="currentColor" y="9" dy="0.71em">B</text></g><g class="tick" opacity="1" transform="translate(130.5,0)"><line stroke="currentColor" y2="6"/><text fill="currentColor" y="9" dy="0.71em">C</text></g><g class="tick" opacity="1" transform="translate(165.5,0)"><line stroke="currentColor" y2="6"/><text fill="currentColor" y="9" dy="0.71em">D</text></g><g class="tick" opacity="1" transform="translate(200.5,0)"><line stroke="currentColor" y2="6"/><text fill="currentColor" y="9" dy="0.71em">E</text></g><g class="tick" opacity="1" transform="translate(235.5,0)"><line stroke="currentColor" y2="6"/><text fill="currentColor" y="9" dy="0.71em">F</text></g><g class="tick" opacity="1" transform="translate(270.5,0)"><line stroke="currentColor" y2="6"/><text fill="currentColor" y="9" dy="0.71em">G</text></g><g class="tick" opacity="1" transform="translate(305.5,0)"><line stroke="currentColor" y2="6"/><text fill="currentColor" y="9" dy="0.71em">H</text></g><g class="tick" opacity="1" transform="translate(340.5,0)"><line stroke="currentColor" y2="6"/><text fill="currentColor" y="9" dy="0.71em">I</text></g><g class="tick" opacity="1" transform="translate(375.5,0)"><line stroke="currentColor" y2="6"/><text fill="currentColor" y="9" dy="0.71em">J</text></g><g class="tick" opacity="1" transform="translate(410.5,0)"><line stroke="currentColor" y2="6"/><text fill="currentColor" y="9" dy="0.71em">K</text></g><g class="tick" opacity="1" transform="translate(445.5,0)"><line stroke="currentColor" y2="6"/><text fill="currentColor" y="9" dy="0.71em">L</text></g><g class="tick" opacity="1" transform="translate(480.5,0)"><line stroke="currentColor" y2="6"/><text fill="currentColor" y="9" dy="0.71em">M</text></g><g class="tick" opacity="1" transform="translate(515.5,0)"><line stroke="currentColor" y2="6"/><text fill="currentColor" y="9" dy="0.71em">N</text></g><g class="tick" opacity="1" transform="translate(550.5,0)"><line stroke="currentColor" y2="6"/><text fill="currentColor" y="9" dy="0.71em">O</text></g><g class="tick" opacity="1" transform="translate(585.5,0)"><line stroke="currentColor" y2="6"/><text fill="currentColor" y="9" dy="0.71em">P</text></g><g class="tick" opacity="1" transform="translate(620.5,0)"><line stroke="currentColor" y2="6"/><text fill="currentColor" y="9" dy="0.71em">Q</text></g><g class="tick" opacity="1" transform="translate(655.5,0)"><line stroke="currentColor" y2="6"/><text fill="currentColor" y="9" dy="0.71em">R</text></g><g class="tick" opacity="1" transform="translate(690.5,0)"><line stroke="currentColor" y2="6"/><text fill="currentColor" y="9" dy="0.71em">S</text></g><g class="tick" opacity="1" transform="translate(725.5,0)"><line stroke="currentColor" y2="6"/><text fill="currentColor" y="9" dy="0.71em">T</text></g><g class="tick" opacity="1" transform="translate(760.5,0)"><line stroke="currentColor" y2="6"/><text fill="currentColor" y="9" dy="0.71em">U</text></g><g class="tick" opacity="1" transform="translate(795.5,0)"><line stroke="currentColor" y2="6"/><text fill="currentColor" y="9" dy="0.71em">V</text></g><g class="tick" opacity="1" transform="translate(830.5,0)"><line stroke="currentColor" y2="6"/><text fill="currentColor" y="9" dy="0.71em">W</text></g><g class="tick" opacity="1" transform="translate(865.5,0)"><line stroke="currentColor" y2="6"/><text fill="currentColor" y="9" dy="0.71em">X</text></g><g class="tick" opacity="1" transform="translate(900.5,0)"><line stroke="currentColor" y2="6"/><text fill="currentColor" y="9" dy="0.71em">Y</text></g><g class="tick" opacity="1" transform="translate(935.5,0)"><line stroke="currentColor" y2="6"/><text fill="currentColor" y="9" dy="0.71em">Z</text></g></g><g transform="translate(40,0)" fill="none" font-size="10" font-family="sans-serif" text-anchor="end"><g class="tick" opacity="1" transform="translate(0,470.5)"><line stroke="currentColor" x2="-6"/><text fill="currentColor" x="-9" dy="0.32em">0%</text></g><g class="tick" opacity="1" transform="translate(0,435.07250826641473)"><line stroke="currentColor" x2="-6"/><text fill="currentColor" x="-9" dy="0.32em">1%</text></g><g class="tick" opacity="1" transform="translate(0,399.64501653282946)"><line stroke="currentColor" x2="-6"/><text fill="currentColor" x="-9" dy="0.32em">2%</text></g><g class="tick" opacity="1" transform="translate(0,364.21752479924425)"><line stroke="currentColor" x2="-6"/><text fill="currentColor" x="-9" dy="0.32em">3%</text></g><g class="tick" opacity="1" transform="translate(0,328.790033065659)"><line stroke="currentColor" x2="-6"/><text fill="currentColor" x="-9" dy="0.32em">4%</text></g><g class="tick" opacity="1" transform="translate(0,293.36254133207365)"><line stroke="currentColor" x2="-6"/><text fill="currentColor" x="-9" dy="0.32em">5%</text></g><g class="tick" opacity="1" transform="translate(0,257.93504959848843)"><line stroke="currentColor" x2="-6"/><text fill="currentColor" x="-9" dy="0.32em">6%</text></g><g class="tick" opacity="1" transform="translate(0,222.50755786490313)"><line stroke="currentColor" x2="-6"/><text fill="currentColor" x="-9" dy="0.32em">7%</text></g><g class="tick" opacity="1" transform="translate(0,187.0800661313179)"><line stroke="currentColor" x2="-6"/><text fill="currentColor" x="-9" dy="0.32em">8%</text></g><g class="tick" opacity="1" transform="translate(0,151.65257439773262)"><line stroke="currentColor" x2="-6"/><text fill="currentColor" x="-9" dy="0.32em">9%</text></g><g class="tick" opacity="1" transform="translate(0,116.22508266414735)"><line stroke="currentColor" x2="-6"/><text fill="currentColor" x="-9" dy="0.32em">10%</text></g><g class="tick" opacity="1" transform="translate(0,80.79759093056211)"><line stroke="currentColor" x2="-6"/><text fill="currentColor" x="-9" dy="0.32em">11%</text></g><g class="tick" opacity="1" transform="translate(0,45.37009919697684)"><line stroke="currentColor" x2="-6"/><text fill="currentColor" x="-9" dy="0.32em">12%</text></g></g><text font-family="sans-serif" font-size="10" y="10">↑ Frequency</text></svg>